# Federated Exchange Protocol > v0.0.2
```mermaid
classDiagram

class HeritageDataExchange{
    +string standard
    +string version
    +datetime generated_at
}

class Organization {
    +UUID organization_guid
    +MultilingualString title
    +string url
}

class DigitalObject {
    +UUID digital_object_guid
    +string url
    +MultilingualString title
    +MultilingualString description
    +Metadata metadata
}

class Type {
    +string value
    +uri authority
}

class MultilingualString {
    +string language
    +string value
}

class Relation {
    +NodeType source_type
    +UUID source_guid
    +NodeType target_type
    +UUID target_guid
    +RelationType relation
    +uri authority
}

class NodeType {
  <<enumeration>>
  DigitalObject
}

class RelationType {
  <<enumeration>>
  derived_from
}

%% Relationships

HeritageDataExchange "1" --> "0..*" Organization 
Organization "1" --> "0..*" DigitalObject
DigitalObject "1" --> "0..*" Type
DigitalObject "1" --> "0..*"  Relation
```
